<mxfile host="app.diagrams.net" modified="2024-07-01T12:14:04.050Z" agent="Mozilla/5.0 (Windows NT 10.0; Win64; x64) AppleWebKit/537.36 (KHTML, like Gecko) Chrome/126.0.0.0 Safari/537.36" version="24.6.4" etag="xtOuCPcaAzwWBAmmnTTd" type="github">
  <diagram name="‫עמוד-1‬" id="evQUI1vt7EIw48ChurK0">
    <mxGraphModel>
      <root>
        <mxCell id="0" />
        <mxCell id="1" parent="0" />
      </root>
    </mxGraphModel>
  </diagram>
</mxfile>
